<svg width="1127" height="1147" viewBox="0 0 1127 1147" fill="none" xmlns="http://www.w3.org/2000/svg">
<path d="M605.982 1120.28C877.779 1120.28 1098.11 899.948 1098.11 628.151C1098.11 356.355 877.779 136.02 605.982 136.02C334.186 136.02 113.851 356.355 113.851 628.151C113.851 899.948 334.186 1120.28 605.982 1120.28Z" stroke="#E73549" stroke-opacity="0.04" stroke-width="6"/>
<path d="M495.131 1096.63C766.927 1096.63 987.262 876.299 987.262 604.503C987.262 332.707 766.927 112.372 495.131 112.372C223.335 112.372 3 332.707 3 604.503C3 876.299 223.335 1096.63 495.131 1096.63Z" stroke="#E73549" stroke-opacity="0.04" stroke-width="6"/>
<path d="M571.988 987.262C843.784 987.262 1064.12 766.927 1064.12 495.131C1064.12 223.335 843.784 3 571.988 3C300.192 3 79.8569 223.335 79.8569 495.131C79.8569 766.927 300.192 987.262 571.988 987.262Z" stroke="#E73549" stroke-opacity="0.04" stroke-width="6"/>
<path d="M561.209 1143.01C833.006 1143.01 1053.34 922.678 1053.34 650.882C1053.34 379.086 833.006 158.751 561.209 158.751C289.413 158.751 69.0781 379.086 69.0781 650.882C69.0781 922.678 289.413 1143.01 561.209 1143.01Z" stroke="#E73549" stroke-opacity="0.04" stroke-width="6"/>
<path d="M499.548 1047.91C771.345 1047.91 991.679 827.574 991.679 555.778C991.679 283.982 771.345 63.647 499.548 63.647C227.752 63.647 7.41724 283.982 7.41724 555.778C7.41724 827.574 227.752 1047.91 499.548 1047.91Z" stroke="#E73549" stroke-opacity="0.04" stroke-width="6"/>
<path d="M631.231 1024.92C903.027 1024.92 1123.36 804.581 1123.36 532.785C1123.36 260.989 903.027 40.6541 631.231 40.6541C359.434 40.6541 139.1 260.989 139.1 532.785C139.1 804.581 359.434 1024.92 631.231 1024.92Z" stroke="#E73549" stroke-opacity="0.04" stroke-width="6"/>
</svg>
