<svg width="1440" height="841" viewBox="0 0 1440 841" fill="none" xmlns="http://www.w3.org/2000/svg">
<line x1="787" y1="33.5" x2="1440" y2="33.5001" stroke="#2E48D9" stroke-width="5"/>
<line y1="-2.5" x2="1133.1" y2="-2.5" transform="matrix(0.70242 -0.711763 0.705064 0.709143 -2 841)" stroke="#2E48D9" stroke-opacity="0.05" stroke-width="5"/>
<line y1="-2.5" x2="1133.1" y2="-2.5" transform="matrix(0.70242 -0.711763 0.705064 0.709143 205.026 841)" stroke="#2E48D9" stroke-opacity="0.05" stroke-width="5"/>
<line y1="-2.5" x2="1133.1" y2="-2.5" transform="matrix(0.70242 -0.711763 0.705064 0.709143 97.0554 841)" stroke="#2E48D9" stroke-opacity="0.05" stroke-width="5"/>
<line y1="-2.5" x2="1133.1" y2="-2.5" transform="matrix(0.70242 -0.711763 0.705064 0.709143 304.081 841)" stroke="#2E48D9" stroke-opacity="0.05" stroke-width="5"/>
<line y1="-2.5" x2="1133.1" y2="-2.5" transform="matrix(0.70242 -0.711763 0.705064 0.709143 49.5088 841)" stroke="#2E48D9" stroke-opacity="0.05" stroke-width="5"/>
<line y1="-2.5" x2="1133.1" y2="-2.5" transform="matrix(0.70242 -0.711763 0.705064 0.709143 256.535 841)" stroke="#2E48D9" stroke-opacity="0.05" stroke-width="5"/>
<line y1="-2.5" x2="1133.1" y2="-2.5" transform="matrix(0.70242 -0.711763 0.705064 0.709143 148.564 841)" stroke="#2E48D9" stroke-opacity="0.05" stroke-width="5"/>
<line y1="-2.5" x2="1133.1" y2="-2.5" transform="matrix(0.70242 -0.711763 0.705064 0.709143 355.59 841)" stroke="#2E48D9" stroke-opacity="0.05" stroke-width="5"/>
<path d="M787 0L807.785 36H766.215L787 0Z" fill="#2E48D9"/>
</svg>
